<svg viewBox="0 0 200 200" xmlns="http://www.w3.org/2000/svg" id="Layer_1"><defs><style>.cls-1{fill:#ad8b3a;}</style></defs><g id="object"><g id="_08"><path d="M149.1,119.1a2.58,2.58,0,0,0,2.57-2.57V53a2.58,2.58,0,0,0-2.57-2.57H132.38V46.66h.68A6.67,6.67,0,0,0,139.7,40V24a6.68,6.68,0,0,0-6.65-6.64H81.9A6.68,6.68,0,0,0,75.25,24V40a6.66,6.66,0,0,0,6.65,6.64h.67v3.76H65.85A2.58,2.58,0,0,0,63.27,53v53.13H29a2.58,2.58,0,0,0-2.57,2.57v71.37A2.58,2.58,0,0,0,29,182.64H98a2.58,2.58,0,0,0,2.57-2.58V161.15a6.87,6.87,0,0,1,13.73,0v18.9a2.58,2.58,0,0,0,2.57,2.58H149.1a2.58,2.58,0,0,0,2.57-2.58v-6.55a2.48,2.48,0,0,0-.75-1.82,2.53,2.53,0,0,0-1.82-.76,2.58,2.58,0,0,0-2.57,2.57v4h-27V161.15a12,12,0,0,0-12-12h0a12,12,0,0,0-12,12v16.34h-27V55.56h78.1v61A2.58,2.58,0,0,0,149.1,119.1ZM63.27,177.49H31.61V111.26H63.27Zm18.63-136A1.51,1.51,0,0,1,80.4,40V24a1.5,1.5,0,0,1,1.5-1.5h51.15a1.5,1.5,0,0,1,1.5,1.5V40a1.51,1.51,0,0,1-1.5,1.5Zm44.51,8.9H88.54V46.66h37.87Z" class="cls-1"></path><rect rx="2" height="9.18" width="8.84" y="130.59" x="72.84" class="cls-1"></rect><rect rx="2" height="9.18" width="8.84" y="130.59" x="84.95" class="cls-1"></rect><rect rx="2" height="9.18" width="8.85" y="130.59" x="97.05" class="cls-1"></rect><rect rx="2" height="9.18" width="8.84" y="130.59" x="109.16" class="cls-1"></rect><rect rx="2" height="9.18" width="8.85" y="116.59" x="121.43" class="cls-1"></rect><rect rx="2" height="9.18" width="8.84" y="116.59" x="109.32" class="cls-1"></rect><rect rx="2" height="9.18" width="8.84" y="116.59" x="97.21" class="cls-1"></rect><rect rx="2" height="9.18" width="8.84" y="116.59" x="85.1" class="cls-1"></rect><rect rx="2" height="9.18" width="8.84" y="116.59" x="72.99" class="cls-1"></rect><rect rx="2" height="9.18" width="8.84" y="102.59" x="72.95" class="cls-1"></rect><rect rx="2" height="9.18" width="8.84" y="102.59" x="85.06" class="cls-1"></rect><rect rx="2" height="9.18" width="8.84" y="102.59" x="97.18" class="cls-1"></rect><rect rx="2" height="9.18" width="8.84" y="102.59" x="109.29" class="cls-1"></rect><rect rx="2" height="9.18" width="8.84" y="102.59" x="121.4" class="cls-1"></rect><path d="M142.35,104.59v5.18a2,2,0,0,1-2,2H135.4a2,2,0,0,1-2-2l.09-5.19a2,2,0,0,1,2-2h4.86A2,2,0,0,1,142.35,104.59Z" class="cls-1"></path><path d="M140.3,97.76h-4.93a2,2,0,0,1-2-2V90.58a2,2,0,0,1,2-2h4.86a2,2,0,0,1,2,2l.07,5.18A2,2,0,0,1,140.3,97.76Z" class="cls-1"></path><rect rx="2" height="9.18" width="8.84" y="88.58" x="121.37" class="cls-1"></rect><rect rx="2" height="9.18" width="8.84" y="88.58" x="109.25" class="cls-1"></rect><rect rx="2" height="9.18" width="8.84" y="88.58" x="97.14" class="cls-1"></rect><rect rx="2" height="9.18" width="8.84" y="88.58" x="85.03" class="cls-1"></rect><rect rx="2" height="9.18" width="8.84" y="74.57" x="97.11" class="cls-1"></rect><rect rx="2" height="9.18" width="8.84" y="74.57" x="109.22" class="cls-1"></rect><rect rx="2" height="9.18" width="8.84" y="74.57" x="121.33" class="cls-1"></rect><path d="M140.27,83.75h-4.9a2,2,0,0,1-2-2V76.57a2,2,0,0,1,2-2h4.86a2,2,0,0,1,2,2l0,5.18A2,2,0,0,1,140.27,83.75Z" class="cls-1"></path><path d="M140.24,69.74h-4.87a2,2,0,0,1-2-2V62.56a2,2,0,0,1,2-2h4.85a2,2,0,0,1,2,2l0,5.18A2,2,0,0,1,140.24,69.74Z" class="cls-1"></path><rect rx="2" height="9.18" width="8.84" y="60.56" x="121.3" class="cls-1"></rect><rect rx="2" height="9.18" width="8.85" y="60.56" x="109.18" class="cls-1"></rect><rect rx="2" height="9.18" width="8.84" y="60.56" x="97.07" class="cls-1"></rect><rect rx="2" height="9.18" width="8.84" y="74.57" x="72.88" class="cls-1"></rect><rect rx="2" height="9.18" width="8.85" y="74.57" x="84.99" class="cls-1"></rect><rect rx="2" height="9.18" width="8.84" y="88.58" x="72.92" class="cls-1"></rect><rect rx="2" height="9.18" width="8.84" y="60.56" x="72.85" class="cls-1"></rect><rect rx="2" height="9.18" width="8.84" y="60.56" x="84.96" class="cls-1"></rect><path d="M40.9,150.76v.13a2.58,2.58,0,0,1-5.15,0v-.13a2.58,2.58,0,0,1,5.15,0Z" class="cls-1"></path><path d="M161.77,140.25a3.33,3.33,0,0,0-1.94-1.28v-.1h-6l-1.61-5a3.34,3.34,0,0,0-4.19-2.13,3.3,3.3,0,0,0-2.14,2.13l-1.61,5h-5.21a3.33,3.33,0,0,0-2,6l4.21,3.07-1.61,4.95a3.33,3.33,0,0,0,5.12,3.72l4.21-3.06,4.21,3.06a3.33,3.33,0,0,0,5.13-3.72L156.83,148l4.21-3.06A3.35,3.35,0,0,0,161.77,140.25Zm-9,4.32a3.3,3.3,0,0,0-1.21,3.72l.29.89-.76-.55a3.35,3.35,0,0,0-3.91,0l-.76.55.29-.89a3.32,3.32,0,0,0-1.21-3.72l-.76-.55h.95a3.29,3.29,0,0,0,3.15-2.3l.29-.89.29.89a3.32,3.32,0,0,0,3.16,2.3h.95Z" class="cls-1"></path><path d="M166.36,128.19a24.41,24.41,0,1,0,7.17,17.26A24.36,24.36,0,0,0,166.36,128.19ZM149.1,164.74a19.29,19.29,0,1,1,19.29-19.29A19.31,19.31,0,0,1,149.1,164.74Z" class="cls-1"></path><path d="M40.9,118v24.86a2.58,2.58,0,0,1-5.15,0V118a2.58,2.58,0,0,1,5.15,0Z" class="cls-1"></path><path d="M91.53,28a2.71,2.71,0,1,1-2.71-2.7A2.72,2.72,0,0,1,91.53,28Z" class="cls-1"></path><path d="M91.53,35.63a2.71,2.71,0,1,1-2.71-2.71A2.72,2.72,0,0,1,91.53,35.63Z" class="cls-1"></path><path d="M129,35.63a2.72,2.72,0,0,1-2.71,2.7H95.63a2.71,2.71,0,0,1,0-5.41h30.66A2.72,2.72,0,0,1,129,35.63Z" class="cls-1"></path><path d="M129,28a2.72,2.72,0,0,1-2.71,2.7H95.63a2.7,2.7,0,1,1,0-5.4h30.66A2.71,2.71,0,0,1,129,28Z" class="cls-1"></path></g></g></svg>